# xmcd
#
# Track frame offsets: 
#        150
#        16947
#        35108
#        52906
#        70650
#        82574
#        100967
#        118162
#        144430
#        161413
#        181803
#        197980
#        214302
#        229235
#        250694
#
# Disc length: 3498 seconds
#
# Revision: 0
# Processed by: cddbd v1.5.2PL0 Copyright (c) Steve Scherf et al.
# Submitted via: ExactAudioCopy v0.99pb4
#
DISCID=c50da80f
DTITLE=BANDARI °àµÃÈğÀÖÍÅ - Misty land ÎíÉ«É½Âö (°²»ÕÒôÏñ³ö°æÉç·¢ĞĞÄÚµ
DTITLE=Ø°æ)
DYEAR=2006
DGENRE=New Age
TTITLE0=ÃÎºÓ River of Dreams
TTITLE1=°ÂÀïÅµ¿ÆÖ®ÃÎ Orinoco Dreams
TTITLE2=¸ßµØÂı°å Adagio of the Highland
TTITLE3=Ë®¾§Çò Crystal Ball
TTITLE4=ÂüµºµÄÒ£Ô¶¼ÇÒä Beyond the Memory of Man
TTITLE5=Ê¥½à»¨Ô° The Holy Garden
TTITLE6=ÊçÅ®Óë²®¾ô The Lady and the Earl
TTITLE7=¼ÅÄ¯¿ÚµÑÊÖ Lonely Whistler
TTITLE8=ÂÌÒâĞ¡Ò¹Çú Serenade in Green
TTITLE9=Ææ»ÃÒøºÓ Incredible Stars
TTITLE10=µ«Ô¸Èç´Ë ¡¶Ö¸»·ÍõÊ×²¿Çú¡· Ö÷ÌâÇú May it Be
TTITLE11=ÒìÊÀ½ç World of Difference
TTITLE12=Âş²»¾­ĞÄµÄÑÛÉñ Careless Eyes
TTITLE13=¡¶Ö¸»·ÍõÈı²¿Çú - ÍõÕß¹éÀ´¡·Ö÷ÌâÇú  Into the West
TTITLE14=ÌØ±ğÊÕÂ¼: special bonus ÁúĞÄ Dragon Heart
EXTD=
EXTT0=
EXTT1=
EXTT2=
EXTT3=
EXTT4=
EXTT5=
EXTT6=
EXTT7=
EXTT8=
EXTT9=
EXTT10=
EXTT11=
EXTT12=
EXTT13=
EXTT14=
PLAYORDER=
